<?xml version="1.0" standalone="no"?><!DOCTYPE svg PUBLIC "-//W3C//DTD SVG 1.1//EN" "http://www.w3.org/Graphics/SVG/1.1/DTD/svg11.dtd"><svg class="icon" width="200px" height="200.00px" viewBox="0 0 1024 1024" version="1.1" xmlns="http://www.w3.org/2000/svg"><path d="M337.76333333 743.33333334L229.70333333 142.88333334H59.16333333v69.68H171.43333333l108.06 600.45h88.29a95.653 95.653 0 0 0-3.6 26.04c0 52.77 42.94 95.71 95.72 95.71 52.77 0 95.71-42.94 95.71-95.71 0-9.02-1.26-17.76-3.6-26.04H704.73333333a95.653 95.653 0 0 0-3.6 26.04c0 52.77 42.94 95.71 95.72 95.71 52.77 0 95.71-42.94 95.71-95.71 0-9.02-1.26-17.76-3.6-26.04h66.45V743.33333334H337.76333333z m148.16 95.72c0 14.35-11.68 26.03-26.03 26.03-14.36 0-26.04-11.68-26.04-26.03 0-14.36 11.68-26.04 26.04-26.04 14.35 0 26.03 11.68 26.03 26.04z m336.95 0c0 14.35-11.68 26.03-26.03 26.03-14.36 0-26.04-11.68-26.04-26.03 0-14.36 11.68-26.04 26.04-26.04 14.35 0 26.03 11.68 26.03 26.04z" fill="#ffffff" /><path d="M934.91333333 673.14333334l28.06-548.45H318.94333333l84.44 548.45h531.53z m-45.27-478.76l-20.94 409.09H463.15333333l-62.99-409.09h489.48z" fill="#ffffff" /></svg>